<svg width="61" height="46" viewBox="0 0 61 46" fill="none" xmlns="http://www.w3.org/2000/svg">
<rect y="30" width="1.71429" height="4" fill="white"/>
<rect x="1.71428" y="30" width="3.42857" height="1.71429" fill="white"/>
<rect x="2.28571" y="44.2857" width="6.85714" height="1.71429" fill="white"/>
<rect x="5.14286" y="30" width="1.71429" height="16" fill="white"/>
<rect x="17.1429" y="44.2857" width="9.14286" height="1.71429" fill="white"/>
<rect x="17.1429" y="36.8571" width="9.14286" height="1.71429" fill="white"/>
<rect x="17.1428" y="30" width="9.14286" height="1.71429" fill="white"/>
<rect x="24.5714" y="30" width="1.71429" height="16" fill="white"/>
<rect x="34.2857" y="44.2857" width="9.14286" height="1.71429" fill="white"/>
<rect x="34.2857" y="36.8571" width="9.14286" height="1.71429" fill="white"/>
<rect x="34.2857" y="30" width="9.14286" height="1.71429" fill="white"/>
<rect x="41.7143" y="30" width="1.71429" height="16" fill="white"/>
<rect x="51.4286" y="30" width="1.71429" height="5.14286" fill="white"/>
<rect x="51.4286" y="30" width="9.14286" height="1.71429" fill="white"/>
<rect x="58.8571" y="30" width="1.71429" height="16" fill="white"/>
<path opacity="0.5" d="M15.5509 7.572H19.8829V8.604H15.5509V7.572ZM15.6709 12H14.4709V3.6H20.3989V4.644H15.6709V12ZM21.8029 12V5.64H22.9069V7.368L22.7989 6.936C22.9749 6.496 23.2709 6.16 23.6869 5.928C24.1029 5.696 24.6149 5.58 25.2229 5.58V6.696C25.1749 6.688 25.1269 6.684 25.0789 6.684C25.0389 6.684 24.9989 6.684 24.9589 6.684C24.3429 6.684 23.8549 6.868 23.4949 7.236C23.1349 7.604 22.9549 8.136 22.9549 8.832V12H21.8029ZM29.3082 12.072C28.6682 12.072 28.1002 11.932 27.6042 11.652C27.1082 11.372 26.7162 10.988 26.4282 10.5C26.1402 10.004 25.9962 9.444 25.9962 8.82C25.9962 8.188 26.1402 7.628 26.4282 7.14C26.7162 6.652 27.1082 6.272 27.6042 6C28.1002 5.72 28.6682 5.58 29.3082 5.58C29.9402 5.58 30.5042 5.72 31.0002 6C31.5042 6.272 31.8962 6.652 32.1762 7.14C32.4642 7.62 32.6082 8.18 32.6082 8.82C32.6082 9.452 32.4642 10.012 32.1762 10.5C31.8962 10.988 31.5042 11.372 31.0002 11.652C30.5042 11.932 29.9402 12.072 29.3082 12.072ZM29.3082 11.064C29.7162 11.064 30.0802 10.972 30.4002 10.788C30.7282 10.604 30.9842 10.344 31.1682 10.008C31.3522 9.664 31.4442 9.268 31.4442 8.82C31.4442 8.364 31.3522 7.972 31.1682 7.644C30.9842 7.308 30.7282 7.048 30.4002 6.864C30.0802 6.68 29.7162 6.588 29.3082 6.588C28.9002 6.588 28.5362 6.68 28.2162 6.864C27.8962 7.048 27.6402 7.308 27.4482 7.644C27.2562 7.972 27.1602 8.364 27.1602 8.82C27.1602 9.268 27.2562 9.664 27.4482 10.008C27.6402 10.344 27.8962 10.604 28.2162 10.788C28.5362 10.972 28.9002 11.064 29.3082 11.064ZM42.1574 5.58C42.6694 5.58 43.1214 5.68 43.5134 5.88C43.9054 6.08 44.2094 6.384 44.4254 6.792C44.6494 7.2 44.7614 7.716 44.7614 8.34V12H43.6094V8.472C43.6094 7.856 43.4654 7.392 43.1774 7.08C42.8894 6.768 42.4854 6.612 41.9654 6.612C41.5814 6.612 41.2454 6.692 40.9574 6.852C40.6694 7.012 40.4454 7.248 40.2854 7.56C40.1334 7.872 40.0574 8.26 40.0574 8.724V12H38.9054V8.472C38.9054 7.856 38.7614 7.392 38.4734 7.08C38.1934 6.768 37.7894 6.612 37.2614 6.612C36.8854 6.612 36.5534 6.692 36.2654 6.852C35.9774 7.012 35.7534 7.248 35.5934 7.56C35.4334 7.872 35.3534 8.26 35.3534 8.724V12H34.2014V5.64H35.3054V7.332L35.1254 6.9C35.3254 6.484 35.6334 6.16 36.0494 5.928C36.4654 5.696 36.9494 5.58 37.5014 5.58C38.1094 5.58 38.6334 5.732 39.0734 6.036C39.5134 6.332 39.8014 6.784 39.9374 7.392L39.4694 7.2C39.6614 6.712 39.9974 6.32 40.4774 6.024C40.9574 5.728 41.5174 5.58 42.1574 5.58Z" fill="white"/>
</svg>
