<svg width="38" height="38" viewBox="0 0 38 38" fill="none" xmlns="http://www.w3.org/2000/svg">
<path d="M18.3047 0.67263C18.6924 0.297596 19.3076 0.297595 19.6953 0.672629L23.3457 4.20406C23.5674 4.41852 23.8757 4.51868 24.1811 4.47548L29.2101 3.76416C29.7441 3.68862 30.2419 4.05025 30.3351 4.58153L31.2126 9.58419C31.2659 9.88799 31.4564 10.1502 31.7289 10.2948L36.2155 12.6753C36.692 12.9281 36.8821 13.5132 36.6452 13.9978L34.4147 18.5608C34.2792 18.8379 34.2792 19.1621 34.4147 19.4392L36.6452 24.0022C36.8821 24.4868 36.692 25.0719 36.2155 25.3247L31.7289 27.7052C31.4564 27.8498 31.2659 28.112 31.2126 28.4158L30.3351 33.4185C30.2419 33.9497 29.7441 34.3114 29.2101 34.2358L24.1811 33.5245C23.8757 33.4813 23.5674 33.5815 23.3457 33.7959L19.6953 37.3274C19.3076 37.7024 18.6924 37.7024 18.3047 37.3274L14.6543 33.7959C14.4326 33.5815 14.1243 33.4813 13.8189 33.5245L8.78995 34.2358C8.25587 34.3114 7.75813 33.9497 7.66494 33.4185L6.7874 28.4158C6.73411 28.112 6.5436 27.8498 6.27113 27.7052L1.78449 25.3247C1.30802 25.0719 1.1179 24.4868 1.35478 24.0022L3.58532 19.4392C3.72078 19.1621 3.72078 18.8379 3.58532 18.5608L1.35478 13.9978C1.1179 13.5132 1.30802 12.9281 1.78449 12.6753L6.27113 10.2948C6.5436 10.1502 6.73411 9.88799 6.7874 9.58419L7.66494 4.58153C7.75813 4.05025 8.25587 3.68862 8.78995 3.76416L13.8189 4.47548C14.1243 4.51868 14.4326 4.41852 14.6543 4.20406L18.3047 0.67263Z" fill="#FFC38B"/>
<path d="M18.0489 8.92705C18.3483 8.00574 19.6517 8.00574 19.9511 8.92705L21.6942 14.2918C21.828 14.7038 22.212 14.9828 22.6452 14.9828H28.2861C29.2548 14.9828 29.6576 16.2224 28.8738 16.7918L24.3103 20.1074C23.9598 20.362 23.8132 20.8134 23.947 21.2254L25.6902 26.5902C25.9895 27.5115 24.935 28.2776 24.1513 27.7082L19.5878 24.3926C19.2373 24.138 18.7627 24.138 18.4122 24.3926L13.8487 27.7082C13.065 28.2776 12.0105 27.5115 12.3098 26.5902L14.053 21.2254C14.1868 20.8134 14.0402 20.362 13.6897 20.1074L9.12616 16.7918C8.34245 16.2224 8.74523 14.9828 9.71395 14.9828H15.3548C15.788 14.9828 16.172 14.7038 16.3058 14.2918L18.0489 8.92705Z" fill="#FF8C38"/>
</svg>
