<svg width="24" height="24" viewBox="0 0 24 24" fill="none" xmlns="http://www.w3.org/2000/svg">
<path d="M21.0561 1.84466C19.7116 0.60352 18.2944 0 16.7237 0C14.8713 0 13.1807 0.848448 11.5454 1.6694C10.0743 2.40785 8.68505 3.10523 7.35372 3.10523C6.34834 3.10523 5.44599 2.70484 4.51395 1.84466C4.19312 1.5484 3.7271 1.4703 3.32671 1.64556C2.95161 1.80983 2.70412 2.16805 2.67405 2.57174C2.62015 2.70154 2.58972 2.8438 2.58972 2.99303V22.9C2.58972 23.5076 3.08214 24 3.6897 24C4.29725 24 4.78967 23.5076 4.78967 22.9V16.4289C5.60439 16.8322 6.45284 17.0375 7.35335 17.0375C7.35335 17.0375 7.35372 17.0375 7.35408 17.0375C9.20607 17.0372 10.8967 16.1891 12.532 15.3681C14.0034 14.6297 15.3931 13.9327 16.7244 13.9327C17.7298 13.9327 18.6321 14.333 19.5638 15.1932C19.8846 15.4902 20.3507 15.5683 20.7511 15.3927C21.1514 15.2174 21.4099 14.8218 21.4099 14.3851V2.65277C21.4099 2.34551 21.2816 2.05292 21.0561 1.84466ZM19.21 12.2955C18.4195 11.9186 17.5956 11.7331 16.7244 11.7331C14.872 11.7331 13.181 12.5815 11.5454 13.4025C10.0743 14.1406 8.68505 14.8376 7.35408 14.8379H7.35372C6.4763 14.8379 5.67735 14.5325 4.8685 13.8828V4.74236C5.65902 5.11965 6.4829 5.30518 7.35408 5.30518C9.20644 5.30518 10.8975 4.45673 12.5324 3.63579C14.0034 2.89734 15.3931 2.19995 16.724 2.19995C17.6022 2.19995 18.4011 2.50538 19.21 3.1551V12.2955Z" fill="#778289"/>
</svg>
