<svg width="64" height="64" viewBox="0 0 64 64" fill="none" xmlns="http://www.w3.org/2000/svg">
<path d="M31.3047 0.672629C31.6924 0.297595 32.3076 0.297595 32.6953 0.672629L39.5595 7.31307C39.7812 7.52753 40.0894 7.62769 40.3948 7.58449L49.8513 6.24694C50.3853 6.1714 50.8831 6.53303 50.9763 7.06431L52.6264 16.4712C52.6797 16.775 52.8702 17.0372 53.1426 17.1818L61.5792 21.658C62.0557 21.9109 62.2458 22.496 62.009 22.9806L57.8147 31.5608C57.6792 31.8379 57.6792 32.1621 57.8147 32.4392L62.009 41.0194C62.2458 41.504 62.0557 42.0891 61.5792 42.342L53.1426 46.8182C52.8702 46.9628 52.6797 47.225 52.6264 47.5288L50.9763 56.9357C50.8831 57.467 50.3853 57.8286 49.8513 57.7531L40.3948 56.4155C40.0894 56.3723 39.7812 56.4725 39.5595 56.6869L32.6953 63.3274C32.3076 63.7024 31.6924 63.7024 31.3047 63.3274L24.4405 56.6869C24.2188 56.4725 23.9106 56.3723 23.6052 56.4155L14.1487 57.7531C13.6147 57.8286 13.1169 57.467 13.0237 56.9357L11.3736 47.5288C11.3203 47.225 11.1298 46.9628 10.8574 46.8182L2.42076 42.342C1.94428 42.0891 1.75416 41.504 1.99104 41.0194L6.18532 32.4392C6.32078 32.1621 6.32078 31.8379 6.18532 31.5608L1.99104 22.9806C1.75416 22.496 1.94428 21.9109 2.42076 21.658L10.8574 17.1818C11.1298 17.0372 11.3203 16.775 11.3736 16.4712L13.0237 7.06431C13.1169 6.53303 13.6147 6.1714 14.1487 6.24694L23.6052 7.58449C23.9106 7.62769 24.2188 7.52753 24.4405 7.31307L31.3047 0.672629Z" fill="#FFDF8B"/>
<path d="M31.0489 12.927C31.3483 12.0057 32.6517 12.0057 32.9511 12.9271L36.7148 24.5106C36.8487 24.9227 37.2326 25.2016 37.6659 25.2016H49.8456C50.8143 25.2016 51.2171 26.4412 50.4333 27.0106L40.5798 34.1697C40.2293 34.4243 40.0826 34.8757 40.2165 35.2877L43.9802 46.8713C44.2796 47.7926 43.2251 48.5588 42.4414 47.9894L32.5878 40.8303C32.2373 40.5757 31.7627 40.5757 31.4122 40.8303L21.5586 47.9894C20.7749 48.5588 19.7204 47.7926 20.0198 46.8713L23.7835 35.2877C23.9174 34.8757 23.7707 34.4243 23.4202 34.1697L13.5667 27.0106C12.7829 26.4412 13.1857 25.2016 14.1544 25.2016H26.3342C26.7674 25.2016 27.1513 24.9227 27.2852 24.5106L31.0489 12.927Z" fill="#FFC738"/>
</svg>
