<svg width="335" height="186" viewBox="0 0 335 186" fill="none" xmlns="http://www.w3.org/2000/svg">
<rect width="335" height="186" fill="#2E78EC"/>
<circle cx="199.641" cy="143.403" r="2.75387" transform="rotate(135 199.641 143.403)" fill="#FF3A3A"/>
<circle cx="195.747" cy="147.298" r="2.75387" transform="rotate(135 195.747 147.298)" fill="#FF3A3A"/>
<circle cx="131.405" cy="147.298" r="2.75387" transform="rotate(-135 131.405 147.298)" fill="#FF3A3A"/>
<circle cx="127.511" cy="143.403" r="2.75387" transform="rotate(-135 127.511 143.403)" fill="#FF3A3A"/>
<circle r="2.75387" transform="matrix(-0.707107 -0.707107 -0.707107 0.707107 202.395 42.7892)" fill="#FF3A3A"/>
<circle r="2.75387" transform="matrix(-0.707107 -0.707107 -0.707107 0.707107 198.501 38.8947)" fill="#FF3A3A"/>
<circle r="2.75387" transform="matrix(-0.707107 0.707107 0.707107 0.707107 134.159 38.8947)" fill="#FF3A3A"/>
<circle r="2.75387" transform="matrix(-0.707107 0.707107 0.707107 0.707107 130.265 42.7893)" fill="#FF3A3A"/>
<path d="M261.963 124.464L259.069 127.581L261.963 124.464Z" fill="#9D3F00"/>
<path d="M261.963 124.464L259.069 127.581" stroke="black" stroke-width="0.3"/>
<path d="M263.923 130.948L266.07 126.334L263.923 130.948Z" fill="#9D3F00"/>
<path d="M263.923 130.948L266.07 126.334" stroke="black" stroke-width="0.3"/>
<path d="M269.245 126.085L269.338 131.322L269.245 126.085Z" fill="#9D3F00"/>
<path d="M269.245 126.085L269.338 131.322" stroke="black" stroke-width="0.3"/>
<path d="M272.792 125.461L272.979 128.703L272.792 125.461Z" fill="#9D3F00"/>
<path d="M272.792 125.461L272.979 128.703" stroke="black" stroke-width="0.3"/>
<path d="M261.963 63.8784L259.069 66.9962L261.963 63.8784Z" fill="#9D3F00"/>
<path d="M261.963 63.8784L259.069 66.9962" stroke="black" stroke-width="0.3"/>
<path d="M263.923 70.3625L266.07 65.7487L263.923 70.3625Z" fill="#9D3F00"/>
<path d="M263.923 70.3625L266.07 65.7487" stroke="black" stroke-width="0.3"/>
<path d="M269.245 65.4995L269.338 70.7372L269.245 65.4995Z" fill="#9D3F00"/>
<path d="M269.245 65.4995L269.338 70.7372" stroke="black" stroke-width="0.3"/>
<path d="M272.792 64.8754L272.979 68.1176L272.792 64.8754Z" fill="#9D3F00"/>
<path d="M272.792 64.8754L272.979 68.1176" stroke="black" stroke-width="0.3"/>
<rect x="269.571" y="70.8002" width="4.72092" height="14.1628" fill="white"/>
<rect x="269.571" y="70.8002" width="25.1783" height="4.72092" fill="white"/>
<rect x="290.029" y="70.8002" width="4.72092" height="44.0619" fill="white"/>
<rect x="41" y="120.37" width="253.356" height="5.50774" fill="black"/>
<g opacity="0.998169">
<g opacity="0.998169">
<path opacity="0.998169" d="M93.3235 60.2626C94.5773 58.7001 104.255 47.2656 113.954 62.2575C116.868 66.7613 121.681 66.5567 124.503 65.0003H131.878C125.024 70.4371 119.005 75.4635 108.82 63.2548C103.096 56.3932 100.436 60.5856 100.436 60.5856L93.3235 60.2626Z" fill="#C04D00"/>
</g>
</g>
<path d="M93.3235 60.2626C94.5773 58.7001 104.255 47.2656 113.954 62.2575C116.868 66.7613 121.681 66.5567 124.503 65.0003H131.878C125.024 70.4371 119.005 75.4635 108.82 63.2548C103.096 56.3932 100.436 60.5856 100.436 60.5856L93.3235 60.2626Z" stroke="black" stroke-width="0.3"/>
<path d="M99.2983 55.8981L99.4847 60.263L99.2983 55.8981Z" fill="#9D3F00"/>
<path d="M99.2983 55.8981L99.4847 60.263" stroke="black" stroke-width="0.3"/>
<path d="M102.472 59.3893L103.033 54.2771L102.472 59.3893Z" fill="#9D3F00"/>
<path d="M102.472 59.3893L103.033 54.2771" stroke="black" stroke-width="0.3"/>
<path d="M105.552 60.3877L108.167 56.3977L105.552 60.3877Z" fill="#9D3F00"/>
<path d="M105.552 60.3877L108.167 56.3977" stroke="black" stroke-width="0.3"/>
<path d="M108.913 63.3797L112.46 60.0125L108.913 63.3797Z" fill="#9D3F00"/>
<path d="M108.913 63.3797L112.46 60.0125" stroke="black" stroke-width="0.3"/>
<path d="M116.008 63.8784L113.114 66.9962L116.008 63.8784Z" fill="#9D3F00"/>
<path d="M116.008 63.8784L113.114 66.9962" stroke="black" stroke-width="0.3"/>
<path d="M117.968 70.3625L120.115 65.7487L117.968 70.3625Z" fill="#9D3F00"/>
<path d="M117.968 70.3625L120.115 65.7487" stroke="black" stroke-width="0.3"/>
<path d="M123.289 65.4995L123.383 70.7372L123.289 65.4995Z" fill="#9D3F00"/>
<path d="M123.289 65.4995L123.383 70.7372" stroke="black" stroke-width="0.3"/>
<path d="M126.837 64.8754L127.024 68.1176L126.837 64.8754Z" fill="#9D3F00"/>
<path d="M126.837 64.8754L127.024 68.1176" stroke="black" stroke-width="0.3"/>
<rect x="41" y="59.7847" width="253.356" height="5.50774" fill="black"/>
<rect x="199.641" y="143.403" width="5.50774" height="22.031" transform="rotate(135 199.641 143.403)" fill="#FF3A3A"/>
<rect x="131.405" y="147.298" width="5.50774" height="22.031" transform="rotate(-135 131.405 147.298)" fill="#FF3A3A"/>
<rect width="5.50774" height="22.031" transform="matrix(-0.707107 -0.707107 -0.707107 0.707107 202.395 42.7892)" fill="#FF3A3A"/>
<rect width="5.50774" height="22.031" transform="matrix(-0.707107 0.707107 0.707107 0.707107 134.159 38.8948)" fill="#FF3A3A"/>
<g opacity="0.998169">
<g opacity="0.998169">
<path opacity="0.998169" d="M98.8313 120.848C100.085 119.285 109.763 107.851 119.462 122.843C122.376 127.346 127.189 127.142 130.011 125.585H137.385C130.531 131.022 124.512 136.049 114.328 123.84C108.604 116.978 105.943 121.171 105.943 121.171L98.8313 120.848Z" fill="#C04D00"/>
</g>
</g>
<path d="M98.8313 120.848C100.085 119.285 109.763 107.851 119.462 122.843C122.376 127.346 127.189 127.142 130.011 125.585H137.385C130.531 131.022 124.512 136.049 114.328 123.84C108.604 116.978 105.943 121.171 105.943 121.171L98.8313 120.848Z" stroke="black" stroke-width="0.3"/>
<path d="M104.806 116.483L104.992 120.848L104.806 116.483Z" fill="#9D3F00"/>
<path d="M104.806 116.483L104.992 120.848" stroke="black" stroke-width="0.3"/>
<path d="M107.98 119.974L108.54 114.862L107.98 119.974Z" fill="#9D3F00"/>
<path d="M107.98 119.974L108.54 114.862" stroke="black" stroke-width="0.3"/>
<path d="M111.06 120.973L113.674 116.983L111.06 120.973Z" fill="#9D3F00"/>
<path d="M111.06 120.973L113.674 116.983" stroke="black" stroke-width="0.3"/>
<path d="M114.421 123.965L117.968 120.598L114.421 123.965Z" fill="#9D3F00"/>
<path d="M114.421 123.965L117.968 120.598" stroke="black" stroke-width="0.3"/>
<path d="M121.515 124.463L118.622 127.581L121.515 124.463Z" fill="#9D3F00"/>
<path d="M121.515 124.463L118.622 127.581" stroke="black" stroke-width="0.3"/>
<path d="M123.476 130.948L125.623 126.334L123.476 130.948Z" fill="#9D3F00"/>
<path d="M123.476 130.948L125.623 126.334" stroke="black" stroke-width="0.3"/>
<path d="M128.797 126.085L128.891 131.322L128.797 126.085Z" fill="#9D3F00"/>
<path d="M128.797 126.085L128.891 131.322" stroke="black" stroke-width="0.3"/>
<path d="M132.345 125.461L132.532 128.703L132.345 125.461Z" fill="#9D3F00"/>
<path d="M132.345 125.461L132.532 128.703" stroke="black" stroke-width="0.3"/>
<g opacity="0.998169">
<g opacity="0.998169">
<path opacity="0.998169" d="M129.124 60.2626C130.378 58.7001 140.056 47.2656 149.754 62.2575C152.668 66.7613 157.481 66.5567 160.303 65.0003H167.678C160.824 70.4371 154.805 75.4635 144.62 63.2548C138.896 56.3932 136.236 60.5856 136.236 60.5856L129.124 60.2626Z" fill="#C04D00"/>
</g>
</g>
<path d="M129.124 60.2626C130.378 58.7001 140.056 47.2656 149.754 62.2575C152.668 66.7613 157.481 66.5567 160.303 65.0003H167.678C160.824 70.4371 154.805 75.4635 144.62 63.2548C138.896 56.3932 136.236 60.5856 136.236 60.5856L129.124 60.2626Z" stroke="black" stroke-width="0.3"/>
<path d="M135.099 55.8981L135.285 60.263L135.099 55.8981Z" fill="#9D3F00"/>
<path d="M135.099 55.8981L135.285 60.263" stroke="black" stroke-width="0.3"/>
<path d="M138.273 59.3893L138.833 54.2771L138.273 59.3893Z" fill="#9D3F00"/>
<path d="M138.273 59.3893L138.833 54.2771" stroke="black" stroke-width="0.3"/>
<path d="M141.353 60.3877L143.967 56.3977L141.353 60.3877Z" fill="#9D3F00"/>
<path d="M141.353 60.3877L143.967 56.3977" stroke="black" stroke-width="0.3"/>
<path d="M144.713 63.3797L148.261 60.0125L144.713 63.3797Z" fill="#9D3F00"/>
<path d="M144.713 63.3797L148.261 60.0125" stroke="black" stroke-width="0.3"/>
<path d="M151.808 63.8784L148.914 66.9962L151.808 63.8784Z" fill="#9D3F00"/>
<path d="M151.808 63.8784L148.914 66.9962" stroke="black" stroke-width="0.3"/>
<path d="M153.768 70.3625L155.916 65.7487L153.768 70.3625Z" fill="#9D3F00"/>
<path d="M153.768 70.3625L155.916 65.7487" stroke="black" stroke-width="0.3"/>
<path d="M159.09 65.4995L159.183 70.7372L159.09 65.4995Z" fill="#9D3F00"/>
<path d="M159.09 65.4995L159.183 70.7372" stroke="black" stroke-width="0.3"/>
<path d="M162.638 64.8754L162.824 68.1176L162.638 64.8754Z" fill="#9D3F00"/>
<path d="M162.638 64.8754L162.824 68.1176" stroke="black" stroke-width="0.3"/>
<g opacity="0.998169">
<g opacity="0.998169">
<path opacity="0.998169" d="M167.678 60.2626C168.932 58.7001 178.61 47.2656 188.309 62.2575C191.222 66.7613 196.036 66.5567 198.858 65.0003H206.232C199.378 70.4371 193.359 75.4635 183.175 63.2548C177.45 56.3932 174.79 60.5856 174.79 60.5856L167.678 60.2626Z" fill="#C04D00"/>
</g>
</g>
<path d="M167.678 60.2626C168.932 58.7001 178.61 47.2656 188.309 62.2575C191.222 66.7613 196.036 66.5567 198.858 65.0003H206.232C199.378 70.4371 193.359 75.4635 183.175 63.2548C177.45 56.3932 174.79 60.5856 174.79 60.5856L167.678 60.2626Z" stroke="black" stroke-width="0.3"/>
<path d="M173.653 55.8981L173.839 60.263L173.653 55.8981Z" fill="#9D3F00"/>
<path d="M173.653 55.8981L173.839 60.263" stroke="black" stroke-width="0.3"/>
<path d="M176.827 59.3893L177.387 54.2771L176.827 59.3893Z" fill="#9D3F00"/>
<path d="M176.827 59.3893L177.387 54.2771" stroke="black" stroke-width="0.3"/>
<path d="M179.907 60.3877L182.521 56.3977L179.907 60.3877Z" fill="#9D3F00"/>
<path d="M179.907 60.3877L182.521 56.3977" stroke="black" stroke-width="0.3"/>
<path d="M183.268 63.3797L186.815 60.0125L183.268 63.3797Z" fill="#9D3F00"/>
<path d="M183.268 63.3797L186.815 60.0125" stroke="black" stroke-width="0.3"/>
<path d="M190.362 63.8784L187.469 66.9962L190.362 63.8784Z" fill="#9D3F00"/>
<path d="M190.362 63.8784L187.469 66.9962" stroke="black" stroke-width="0.3"/>
<path d="M192.323 70.3625L194.47 65.7487L192.323 70.3625Z" fill="#9D3F00"/>
<path d="M192.323 70.3625L194.47 65.7487" stroke="black" stroke-width="0.3"/>
<path d="M197.644 65.4995L197.737 70.7372L197.644 65.4995Z" fill="#9D3F00"/>
<path d="M197.644 65.4995L197.737 70.7372" stroke="black" stroke-width="0.3"/>
<path d="M201.192 64.8754L201.378 68.1176L201.192 64.8754Z" fill="#9D3F00"/>
<path d="M201.192 64.8754L201.378 68.1176" stroke="black" stroke-width="0.3"/>
<g opacity="0.998169">
<g opacity="0.998169">
<path opacity="0.998169" d="M192.463 120.848C193.717 119.285 203.395 107.851 213.094 122.843C216.007 127.346 220.821 127.142 223.642 125.585H231.017C224.163 131.022 218.144 136.049 207.96 123.84C202.235 116.978 199.575 121.171 199.575 121.171L192.463 120.848Z" fill="#C04D00"/>
</g>
</g>
<path d="M192.463 120.848C193.717 119.285 203.395 107.851 213.094 122.843C216.007 127.346 220.821 127.142 223.642 125.585H231.017C224.163 131.022 218.144 136.049 207.96 123.84C202.235 116.978 199.575 121.171 199.575 121.171L192.463 120.848Z" stroke="black" stroke-width="0.3"/>
<path d="M198.438 116.483L198.624 120.848L198.438 116.483Z" fill="#9D3F00"/>
<path d="M198.438 116.483L198.624 120.848" stroke="black" stroke-width="0.3"/>
<path d="M201.612 119.974L202.172 114.862L201.612 119.974Z" fill="#9D3F00"/>
<path d="M201.612 119.974L202.172 114.862" stroke="black" stroke-width="0.3"/>
<path d="M204.692 120.973L207.306 116.983L204.692 120.973Z" fill="#9D3F00"/>
<path d="M204.692 120.973L207.306 116.983" stroke="black" stroke-width="0.3"/>
<path d="M208.052 123.965L211.6 120.598L208.052 123.965Z" fill="#9D3F00"/>
<path d="M208.052 123.965L211.6 120.598" stroke="black" stroke-width="0.3"/>
<path d="M215.147 124.463L212.253 127.581L215.147 124.463Z" fill="#9D3F00"/>
<path d="M215.147 124.463L212.253 127.581" stroke="black" stroke-width="0.3"/>
<path d="M217.107 130.948L219.255 126.334L217.107 130.948Z" fill="#9D3F00"/>
<path d="M217.107 130.948L219.255 126.334" stroke="black" stroke-width="0.3"/>
<path d="M222.429 126.085L222.522 131.322L222.429 126.085Z" fill="#9D3F00"/>
<path d="M222.429 126.085L222.522 131.322" stroke="black" stroke-width="0.3"/>
<path d="M225.977 125.461L226.163 128.703L225.977 125.461Z" fill="#9D3F00"/>
<path d="M225.977 125.461L226.163 128.703" stroke="black" stroke-width="0.3"/>
<g opacity="0.998169">
<g opacity="0.998169">
<path opacity="0.998169" d="M203.479 60.2626C204.732 58.7001 214.41 47.2656 224.109 62.2575C227.023 66.7613 231.836 66.5567 234.658 65.0003H242.033C235.179 70.4371 229.16 75.4635 218.975 63.2548C213.251 56.3932 210.591 60.5856 210.591 60.5856L203.479 60.2626Z" fill="#C04D00"/>
</g>
</g>
<path d="M203.479 60.2626C204.732 58.7001 214.41 47.2656 224.109 62.2575C227.023 66.7613 231.836 66.5567 234.658 65.0003H242.033C235.179 70.4371 229.16 75.4635 218.975 63.2548C213.251 56.3932 210.591 60.5856 210.591 60.5856L203.479 60.2626Z" stroke="black" stroke-width="0.3"/>
<path d="M209.453 55.8981L209.64 60.263L209.453 55.8981Z" fill="#9D3F00"/>
<path d="M209.453 55.8981L209.64 60.263" stroke="black" stroke-width="0.3"/>
<path d="M212.627 59.3893L213.188 54.2771L212.627 59.3893Z" fill="#9D3F00"/>
<path d="M212.627 59.3893L213.188 54.2771" stroke="black" stroke-width="0.3"/>
<path d="M215.708 60.3877L218.322 56.3977L215.708 60.3877Z" fill="#9D3F00"/>
<path d="M215.708 60.3877L218.322 56.3977" stroke="black" stroke-width="0.3"/>
<path d="M219.068 63.3797L222.615 60.0125L219.068 63.3797Z" fill="#9D3F00"/>
<path d="M219.068 63.3797L222.615 60.0125" stroke="black" stroke-width="0.3"/>
<path d="M226.163 63.8784L223.269 66.9962L226.163 63.8784Z" fill="#9D3F00"/>
<path d="M226.163 63.8784L223.269 66.9962" stroke="black" stroke-width="0.3"/>
<path d="M228.123 70.3625L230.27 65.7487L228.123 70.3625Z" fill="#9D3F00"/>
<path d="M228.123 70.3625L230.27 65.7487" stroke="black" stroke-width="0.3"/>
<path d="M233.444 65.4995L233.538 70.7372L233.444 65.4995Z" fill="#9D3F00"/>
<path d="M233.444 65.4995L233.538 70.7372" stroke="black" stroke-width="0.3"/>
<path d="M236.992 64.8754L237.179 68.1176L236.992 64.8754Z" fill="#9D3F00"/>
<path d="M236.992 64.8754L237.179 68.1176" stroke="black" stroke-width="0.3"/>
<g opacity="0.998169">
<g opacity="0.998169">
<path opacity="0.998169" d="M239.279 120.848C240.533 119.285 250.211 107.851 259.91 122.843C262.823 127.346 267.636 127.142 270.458 125.585H277.833C270.979 131.022 264.96 136.049 254.775 123.84C249.051 116.978 246.391 121.171 246.391 121.171L239.279 120.848Z" fill="#C04D00"/>
</g>
</g>
<path d="M239.279 120.848C240.533 119.285 250.211 107.851 259.91 122.843C262.823 127.346 267.636 127.142 270.458 125.585H277.833C270.979 131.022 264.96 136.049 254.775 123.84C249.051 116.978 246.391 121.171 246.391 121.171L239.279 120.848Z" stroke="black" stroke-width="0.3"/>
<path d="M245.254 116.483L245.44 120.848L245.254 116.483Z" fill="#9D3F00"/>
<path d="M245.254 116.483L245.44 120.848" stroke="black" stroke-width="0.3"/>
<path d="M248.428 119.974L248.988 114.862L248.428 119.974Z" fill="#9D3F00"/>
<path d="M248.428 119.974L248.988 114.862" stroke="black" stroke-width="0.3"/>
<path d="M251.508 120.973L254.122 116.983L251.508 120.973Z" fill="#9D3F00"/>
<path d="M251.508 120.973L254.122 116.983" stroke="black" stroke-width="0.3"/>
<path d="M254.868 123.965L258.416 120.598L254.868 123.965Z" fill="#9D3F00"/>
<path d="M254.868 123.965L258.416 120.598" stroke="black" stroke-width="0.3"/>
<g opacity="0.998169">
<g opacity="0.998169">
<path opacity="0.998169" d="M239.279 60.2625C240.533 58.7 250.211 47.2656 259.91 62.2575C262.823 66.7613 267.636 66.5566 270.458 65.0002H277.833C270.979 70.4371 264.96 75.4635 254.775 63.2547C249.051 56.3931 246.391 60.5855 246.391 60.5855L239.279 60.2625Z" fill="#C04D00"/>
</g>
</g>
<path d="M239.279 60.2625C240.533 58.7 250.211 47.2656 259.91 62.2575C262.823 66.7613 267.636 66.5566 270.458 65.0002H277.833C270.979 70.4371 264.96 75.4635 254.775 63.2547C249.051 56.3931 246.391 60.5855 246.391 60.5855L239.279 60.2625Z" stroke="black" stroke-width="0.3"/>
<path d="M245.254 55.898L245.44 60.2629L245.254 55.898Z" fill="#9D3F00"/>
<path d="M245.254 55.898L245.44 60.2629" stroke="black" stroke-width="0.3"/>
<path d="M248.428 59.3893L248.988 54.2771L248.428 59.3893Z" fill="#9D3F00"/>
<path d="M248.428 59.3893L248.988 54.2771" stroke="black" stroke-width="0.3"/>
<path d="M251.508 60.3877L254.122 56.3977L251.508 60.3877Z" fill="#9D3F00"/>
<path d="M251.508 60.3877L254.122 56.3977" stroke="black" stroke-width="0.3"/>
<path d="M254.868 63.3796L258.416 60.0125L254.868 63.3796Z" fill="#9D3F00"/>
<path d="M254.868 63.3796L258.416 60.0125" stroke="black" stroke-width="0.3"/>
<circle cx="166.301" cy="94.2081" r="41.685" fill="#FF3A3A" stroke="#FFE01F" stroke-width="2"/>
<rect x="41" y="70.8002" width="4.72092" height="11.0155" fill="white"/>
<rect x="45.7209" y="70.8002" width="9.44184" height="4.72092" fill="white"/>
<rect x="47.2947" y="110.141" width="18.8837" height="4.72092" fill="white"/>
<rect x="55.1628" y="70.8002" width="4.72092" height="44.0619" fill="white"/>
<rect x="88.2092" y="110.141" width="25.1783" height="4.72092" fill="white"/>
<rect x="88.2092" y="89.6838" width="25.1783" height="4.72092" fill="white"/>
<rect x="88.2092" y="70.8002" width="25.1783" height="4.72092" fill="white"/>
<rect x="108.667" y="70.8002" width="4.72092" height="44.0619" fill="white"/>
<rect x="220.788" y="110.141" width="25.1783" height="4.72092" fill="white"/>
<rect x="220.788" y="89.6838" width="25.1783" height="4.72092" fill="white"/>
<rect x="220.788" y="70.8002" width="25.1783" height="4.72092" fill="white"/>
<rect x="241.246" y="70.8002" width="4.72092" height="44.0619" fill="white"/>
<g opacity="0.998169">
<g opacity="0.998169">
<path opacity="0.998169" d="M57.5232 120.848C58.777 119.285 68.4551 107.851 78.1539 122.843C81.0677 127.346 85.8809 127.142 88.7028 125.585H96.0774C89.2233 131.022 83.2043 136.049 73.0198 123.84C67.2957 116.978 64.6353 121.171 64.6353 121.171L57.5232 120.848Z" fill="#C04D00"/>
</g>
</g>
<path d="M57.5232 120.848C58.777 119.285 68.4551 107.851 78.1539 122.843C81.0677 127.346 85.8809 127.142 88.7028 125.585H96.0774C89.2233 131.022 83.2043 136.049 73.0198 123.84C67.2957 116.978 64.6353 121.171 64.6353 121.171L57.5232 120.848Z" stroke="black" stroke-width="0.3"/>
<path d="M63.498 116.483L63.6844 120.848L63.498 116.483Z" fill="#9D3F00"/>
<path d="M63.498 116.483L63.6844 120.848" stroke="black" stroke-width="0.3"/>
<path d="M66.6721 119.974L67.2324 114.862L66.6721 119.974Z" fill="#9D3F00"/>
<path d="M66.6721 119.974L67.2324 114.862" stroke="black" stroke-width="0.3"/>
<path d="M69.7522 120.973L72.3662 116.983L69.7522 120.973Z" fill="#9D3F00"/>
<path d="M69.7522 120.973L72.3662 116.983" stroke="black" stroke-width="0.3"/>
<path d="M73.1128 123.965L76.6601 120.598L73.1128 123.965Z" fill="#9D3F00"/>
<path d="M73.1128 123.965L76.6601 120.598" stroke="black" stroke-width="0.3"/>
<path d="M80.2073 124.463L77.3137 127.581L80.2073 124.463Z" fill="#9D3F00"/>
<path d="M80.2073 124.463L77.3137 127.581" stroke="black" stroke-width="0.3"/>
<path d="M82.1677 130.948L84.3151 126.334L82.1677 130.948Z" fill="#9D3F00"/>
<path d="M82.1677 130.948L84.3151 126.334" stroke="black" stroke-width="0.3"/>
<path d="M87.489 126.085L87.5826 131.322L87.489 126.085Z" fill="#9D3F00"/>
<path d="M87.489 126.085L87.5826 131.322" stroke="black" stroke-width="0.3"/>
<path d="M91.0371 125.461L91.2234 128.703L91.0371 125.461Z" fill="#9D3F00"/>
<path d="M91.0371 125.461L91.2234 128.703" stroke="black" stroke-width="0.3"/>
<g opacity="0.998169">
<g opacity="0.998169">
<path opacity="0.998169" d="M57.5232 60.2626C58.777 58.7001 68.4551 47.2656 78.1539 62.2575C81.0677 66.7613 85.8809 66.5567 88.7028 65.0003H96.0774C89.2233 70.4371 83.2043 75.4635 73.0198 63.2548C67.2957 56.3932 64.6353 60.5856 64.6353 60.5856L57.5232 60.2626Z" fill="#C04D00"/>
</g>
</g>
<path d="M57.5232 60.2626C58.777 58.7001 68.4551 47.2656 78.1539 62.2575C81.0677 66.7613 85.8809 66.5567 88.7028 65.0003H96.0774C89.2233 70.4371 83.2043 75.4635 73.0198 63.2548C67.2957 56.3932 64.6353 60.5856 64.6353 60.5856L57.5232 60.2626Z" stroke="black" stroke-width="0.3"/>
<path d="M63.498 55.8981L63.6844 60.263L63.498 55.8981Z" fill="#9D3F00"/>
<path d="M63.498 55.8981L63.6844 60.263" stroke="black" stroke-width="0.3"/>
<path d="M66.6721 59.3893L67.2324 54.2771L66.6721 59.3893Z" fill="#9D3F00"/>
<path d="M66.6721 59.3893L67.2324 54.2771" stroke="black" stroke-width="0.3"/>
<path d="M69.7522 60.3877L72.3662 56.3977L69.7522 60.3877Z" fill="#9D3F00"/>
<path d="M69.7522 60.3877L72.3662 56.3977" stroke="black" stroke-width="0.3"/>
<path d="M73.1128 63.3797L76.6601 60.0125L73.1128 63.3797Z" fill="#9D3F00"/>
<path d="M73.1128 63.3797L76.6601 60.0125" stroke="black" stroke-width="0.3"/>
<path d="M80.2073 63.8784L77.3137 66.9962L80.2073 63.8784Z" fill="#9D3F00"/>
<path d="M80.2073 63.8784L77.3137 66.9962" stroke="black" stroke-width="0.3"/>
<path d="M82.1677 70.3625L84.3151 65.7487L82.1677 70.3625Z" fill="#9D3F00"/>
<path d="M82.1677 70.3625L84.3151 65.7487" stroke="black" stroke-width="0.3"/>
<path d="M87.489 65.4995L87.5826 70.7372L87.489 65.4995Z" fill="#9D3F00"/>
<path d="M87.489 65.4995L87.5826 70.7372" stroke="black" stroke-width="0.3"/>
<path d="M91.0371 64.8754L91.2234 68.1176L91.0371 64.8754Z" fill="#9D3F00"/>
<path d="M91.0371 64.8754L91.2234 68.1176" stroke="black" stroke-width="0.3"/>
<path d="M162.955 84.1048V93.0631C161.723 91.9605 160.941 90.3659 160.941 88.5837C160.941 86.8021 161.723 85.2074 162.955 84.1048ZM170.689 83.8692C172.082 84.9718 172.983 86.6703 172.983 88.5837C172.983 90.4976 172.082 92.1961 170.689 93.2988V83.8692ZM166.862 65C164.754 65 162.947 66.3586 162.184 68.2823L156.789 69.7254L161.83 70.9576C162.049 72.8814 163.245 74.4904 164.885 75.2189V76.5882C159.823 77.5465 156 81.9485 156 87.2239C156 90.548 157.518 93.525 159.908 95.5113L157.732 98.4217L159.599 98.6033L157.804 101.468H161.259L159.01 109.375L162.247 109.357L162.955 121.28C157.043 121.145 152.59 129.821 166.89 122.205C172.631 127.983 177.879 125.412 170.48 121.489L171.232 109.321L174.062 109.303L172.448 101.468H175.485L173.69 98.5944L175.485 98.4217L173.572 95.8652C176.221 93.8879 177.934 90.7513 177.934 87.2239C177.934 81.9521 174.107 77.5595 169.048 76.5972V75.1105C170.543 74.355 171.634 72.8616 171.877 71.0754L177.29 69.5159L171.568 68.3462C170.82 66.3887 168.994 65 166.862 65Z" fill="black"/>
<path d="M147.759 149V140.273H149.604V143.874H153.349V140.273H155.19V149H153.349V145.395H149.604V149H147.759ZM163.062 140.273H164.907V145.94C164.907 146.577 164.755 147.134 164.451 147.611C164.15 148.088 163.728 148.46 163.186 148.727C162.643 148.991 162.011 149.124 161.29 149.124C160.565 149.124 159.932 148.991 159.389 148.727C158.846 148.46 158.424 148.088 158.123 147.611C157.822 147.134 157.672 146.577 157.672 145.94V140.273H159.517V145.783C159.517 146.115 159.589 146.411 159.734 146.669C159.882 146.928 160.089 147.131 160.356 147.278C160.623 147.426 160.934 147.5 161.29 147.5C161.648 147.5 161.959 147.426 162.223 147.278C162.49 147.131 162.696 146.928 162.841 146.669C162.988 146.411 163.062 146.115 163.062 145.783V140.273ZM174.685 140.273V149H173.092L169.295 143.507H169.231V149H167.386V140.273H169.005L172.772 145.761H172.849V140.273H174.685ZM176.837 141.794V140.273H184.005V141.794H181.333V149H179.509V141.794H176.837Z" fill="black"/>
<path d="M153.604 40.2727V49H151.759V40.2727H153.604ZM163.622 40.2727V49H162.028L158.231 43.5071H158.167V49H156.322V40.2727H157.941L161.708 45.7614H161.785V40.2727H163.622ZM166.346 49V40.2727H169.789C170.451 40.2727 171.015 40.3991 171.481 40.652C171.947 40.902 172.302 41.25 172.546 41.696C172.793 42.1392 172.917 42.6506 172.917 43.2301C172.917 43.8097 172.792 44.321 172.542 44.7642C172.292 45.2074 171.93 45.5526 171.455 45.7997C170.984 46.0469 170.413 46.1705 169.742 46.1705H167.548V44.6918H169.444C169.799 44.6918 170.092 44.6307 170.322 44.5085C170.555 44.3835 170.728 44.2116 170.842 43.9929C170.958 43.7713 171.016 43.517 171.016 43.2301C171.016 42.9403 170.958 42.6875 170.842 42.4716C170.728 42.2528 170.555 42.0838 170.322 41.9645C170.089 41.8423 169.793 41.7812 169.436 41.7812H168.191V49H166.346ZM174.983 41.794V40.2727H182.151V41.794H179.479V49H177.655V41.794H174.983Z" fill="black"/>
</svg>
