<svg width="20" height="15" viewBox="0 0 20 15" fill="none" xmlns="http://www.w3.org/2000/svg">
<path d="M18 14.75H2.00003C1.73942 14.7581 1.47985 14.7135 1.23685 14.619C0.993841 14.5245 0.772371 14.382 0.585691 14.2C0.399001 14.018 0.250921 13.8002 0.150291 13.5596C0.0496708 13.3191 -0.00143917 13.0607 3.08314e-05 12.8V7.27003C0.0130808 6.74833 0.229541 6.25233 0.603201 5.88803C0.976871 5.52373 1.47815 5.31983 2.00003 5.32003H4.87003C4.92913 5.32003 4.98764 5.30843 5.04224 5.28583C5.09683 5.26313 5.14644 5.23003 5.18823 5.18823C5.23001 5.14643 5.26316 5.09683 5.28578 5.04223C5.30839 4.98765 5.32003 4.92914 5.32003 4.87004V2.87004C5.33271 2.35686 5.54222 1.8682 5.90521 1.50522C6.26819 1.14224 6.75685 0.932724 7.27003 0.920044H12.83C13.3604 0.920044 13.8691 1.13076 14.2442 1.50583C14.6193 1.8809 14.83 2.38961 14.83 2.92004V7.39003C14.83 7.50943 14.8774 7.62383 14.9618 7.70823C15.0462 7.79263 15.1607 7.84003 15.28 7.84003H18C18.52 7.85563 19.0134 8.07323 19.3756 8.44663C19.7378 8.82003 19.9402 9.31983 19.94 9.84003V12.8C19.9413 13.0556 19.8921 13.309 19.7952 13.5455C19.6983 13.782 19.5556 13.9971 19.3753 14.1783C19.1951 14.3595 18.9807 14.5033 18.7447 14.6014C18.5087 14.6995 18.2556 14.75 18 14.75ZM2.00003 6.82003C1.88242 6.82263 1.77052 6.87123 1.68828 6.95533C1.60604 7.03943 1.56 7.15243 1.56003 7.27003V12.8C1.56 12.9176 1.60604 13.0306 1.68828 13.1147C1.77052 13.1988 1.88242 13.2474 2.00003 13.25H18C18.1176 13.2474 18.2295 13.1988 18.3118 13.1147C18.394 13.0306 18.44 12.9176 18.44 12.8V9.74003C18.44 9.62243 18.394 9.50943 18.3118 9.42533C18.2295 9.34123 18.1176 9.29263 18 9.29003H15.23C14.7081 9.29023 14.2068 9.08633 13.8332 8.72203C13.4595 8.35773 13.243 7.86173 13.23 7.34003V2.87004C13.23 2.7507 13.1826 2.63624 13.0982 2.55185C13.0138 2.46745 12.8993 2.42004 12.78 2.42004H7.27003C7.15068 2.42004 7.03622 2.46745 6.95183 2.55185C6.86744 2.63624 6.82003 2.7507 6.82003 2.87004V4.87004C6.82019 5.39193 6.61636 5.89323 6.25203 6.26683C5.8877 6.64053 5.39175 6.85703 4.87003 6.87003L2.00003 6.82003Z" fill="#778289"/>
</svg>
