<svg width="20" height="15" viewBox="0 0 20 15" fill="none" xmlns="http://www.w3.org/2000/svg">
<path d="M18 14.75H2.00003C1.73942 14.7581 1.47985 14.7135 1.23685 14.619C0.993841 14.5245 0.772371 14.382 0.585691 14.2C0.399001 14.018 0.250921 13.8002 0.150291 13.5596C0.0496708 13.3191 -0.00143917 13.0607 3.08314e-05 12.8V7.26997C0.0130808 6.74827 0.229541 6.25227 0.603201 5.88797C0.976871 5.52367 1.47815 5.31977 2.00003 5.31997H4.87003C4.92913 5.31997 4.98764 5.30837 5.04224 5.28577C5.09683 5.26307 5.14644 5.22997 5.18823 5.18817C5.23001 5.14637 5.26316 5.09677 5.28578 5.04217C5.30839 4.98759 5.32003 4.92908 5.32003 4.86998V2.86998C5.33271 2.3568 5.54222 1.86814 5.90521 1.50516C6.26819 1.14218 6.75685 0.932663 7.27003 0.919983H12.83C13.3604 0.919983 13.8691 1.1307 14.2442 1.50577C14.6193 1.88084 14.83 2.38955 14.83 2.91998V7.38997C14.83 7.50937 14.8774 7.62377 14.9618 7.70817C15.0462 7.79257 15.1607 7.83997 15.28 7.83997H18C18.52 7.85557 19.0134 8.07317 19.3756 8.44657C19.7378 8.81997 19.9402 9.31977 19.94 9.83997V12.8C19.9413 13.0556 19.8921 13.309 19.7952 13.5455C19.6983 13.782 19.5556 13.9971 19.3753 14.1783C19.1951 14.3595 18.9807 14.5033 18.7447 14.6014C18.5087 14.6995 18.2556 14.75 18 14.75ZM2.00003 6.81997C1.88242 6.82257 1.77052 6.87117 1.68828 6.95527C1.60604 7.03937 1.56 7.15237 1.56003 7.26997V12.8C1.56 12.9176 1.60604 13.0306 1.68828 13.1147C1.77052 13.1988 1.88242 13.2474 2.00003 13.25H18C18.1176 13.2474 18.2295 13.1988 18.3118 13.1147C18.394 13.0306 18.44 12.9176 18.44 12.8V9.73997C18.44 9.62237 18.394 9.50937 18.3118 9.42527C18.2295 9.34117 18.1176 9.29257 18 9.28997H15.23C14.7081 9.29017 14.2068 9.08627 13.8332 8.72197C13.4595 8.35767 13.243 7.86167 13.23 7.33997V2.86998C13.23 2.75064 13.1826 2.63618 13.0982 2.55179C13.0138 2.46739 12.8993 2.41998 12.78 2.41998H7.27003C7.15068 2.41998 7.03622 2.46739 6.95183 2.55179C6.86744 2.63618 6.82003 2.75064 6.82003 2.86998V4.86998C6.82019 5.39187 6.61636 5.89317 6.25203 6.26677C5.8877 6.64047 5.39175 6.85697 4.87003 6.86997L2.00003 6.81997Z" fill="#6094E6"/>
</svg>
