<svg width="24" height="24" viewBox="0 0 24 24" fill="none" xmlns="http://www.w3.org/2000/svg">
<g opacity="0.35">
<circle cx="12" cy="5" r="4" stroke="#778289" stroke-width="2"/>
<path d="M23 19.125C23 20.0283 22.7377 20.6448 22.3173 21.1068C21.8757 21.5922 21.1842 21.9887 20.1954 22.2882C18.1887 22.8961 15.3381 23 12 23C8.66187 23 5.81128 22.8961 3.80464 22.2882C2.81584 21.9887 2.12431 21.5922 1.68267 21.1068C1.26233 20.6448 1 20.0283 1 19.125C1 17.3125 2.08457 15.5557 4.07538 14.2078C6.06054 12.8637 8.85933 12 12 12C15.1407 12 17.9395 12.8637 19.9246 14.2078C21.9154 15.5557 23 17.3125 23 19.125Z" stroke="#778289" stroke-width="2"/>
</g>
</svg>
