<svg width="32" height="32" viewBox="0 0 32 32" fill="none" xmlns="http://www.w3.org/2000/svg">
<path d="M15.3047 0.672629C15.6924 0.297595 16.3076 0.297595 16.6953 0.672629L19.6041 3.4866C19.8258 3.70106 20.134 3.80121 20.4394 3.75802L24.4467 3.19121C24.9808 3.11567 25.4785 3.4773 25.5717 4.00858L26.271 7.99487C26.3243 8.29868 26.5148 8.56089 26.7872 8.70546L30.3623 10.6023C30.8388 10.8551 31.0289 11.4403 30.7921 11.9248L29.0147 15.5608C28.8792 15.8379 28.8792 16.1621 29.0147 16.4392L30.7921 20.0752C31.0289 20.5597 30.8388 21.1449 30.3623 21.3977L26.7872 23.2945C26.5148 23.4391 26.3243 23.7013 26.271 24.0051L25.5717 27.9914C25.4785 28.5227 24.9808 28.8843 24.4467 28.8088L20.4394 28.242C20.134 28.1988 19.8258 28.2989 19.6041 28.5134L16.6953 31.3274C16.3076 31.7024 15.6924 31.7024 15.3047 31.3274L12.3959 28.5134C12.1742 28.2989 11.866 28.1988 11.5606 28.242L7.5533 28.8088C7.01923 28.8843 6.52149 28.5227 6.42829 27.9914L5.72904 24.0051C5.67575 23.7013 5.48524 23.4391 5.21277 23.2945L1.63766 21.3977C1.16119 21.1449 0.971064 20.5597 1.20795 20.0752L2.98532 16.4392C3.12078 16.1621 3.12078 15.8379 2.98532 15.5608L1.20795 11.9248C0.971064 11.4403 1.16119 10.8551 1.63766 10.6023L5.21277 8.70546C5.48524 8.56089 5.67575 8.29868 5.72904 7.99487L6.42829 4.00858C6.52149 3.4773 7.01923 3.11567 7.5533 3.19121L11.5606 3.75802C11.866 3.80121 12.1742 3.70106 12.3959 3.4866L15.3047 0.672629Z" fill="#EDEDED"/>
<path d="M15.0489 7.92705C15.3483 7.00574 16.6517 7.00574 16.9511 7.92705L18.2451 11.9098C18.379 12.3219 18.763 12.6008 19.1962 12.6008H23.3839C24.3527 12.6008 24.7554 13.8404 23.9717 14.4098L20.5838 16.8713C20.2333 17.126 20.0866 17.5773 20.2205 17.9894L21.5146 21.9721C21.8139 22.8934 20.7595 23.6596 19.9757 23.0902L16.5878 20.6287C16.2373 20.374 15.7627 20.374 15.4122 20.6287L12.0243 23.0902C11.2405 23.6596 10.1861 22.8934 10.4854 21.9721L11.7795 17.9894C11.9134 17.5773 11.7667 17.126 11.4162 16.8713L8.02827 14.4098C7.24456 13.8404 7.64734 12.6008 8.61606 12.6008H12.8038C13.237 12.6008 13.621 12.3219 13.7549 11.9098L15.0489 7.92705Z" fill="#AFAFAF"/>
</svg>
