<svg width="26" height="28" viewBox="0 0 26 28" fill="none" xmlns="http://www.w3.org/2000/svg">
<path d="M10.6882 1.72863C11.8984 0.300197 14.1016 0.300197 15.3118 1.72863C16.0539 2.60456 17.2274 2.98584 18.3426 2.71341C20.1613 2.26913 21.9437 3.56412 22.0832 5.4311C22.1688 6.57596 22.894 7.57415 23.9564 8.00928C25.6889 8.71886 26.3697 10.8142 25.3852 12.4066C24.7814 13.3831 24.7814 14.6169 25.3852 15.5934C26.3697 17.1858 25.6889 19.2811 23.9564 19.9907C22.894 20.4258 22.1688 21.424 22.0832 22.5689C21.9437 24.4359 20.1613 25.7309 18.3426 25.2866C17.2274 25.0142 16.0539 25.3954 15.3118 26.2714C14.1016 27.6998 11.8984 27.6998 10.6882 26.2714C9.94606 25.3954 8.77262 25.0142 7.65736 25.2866C5.83866 25.7309 4.05626 24.4359 3.91678 22.5689C3.83124 21.424 3.10602 20.4258 2.04362 19.9907C0.311121 19.2811 -0.369695 17.1858 0.614845 15.5934C1.21858 14.6169 1.21858 13.3831 0.614845 12.4066C-0.369694 10.8142 0.31112 8.71886 2.04362 8.00928C3.10602 7.57415 3.83124 6.57596 3.91678 5.4311C4.05626 3.56412 5.83866 2.26913 7.65736 2.71341C8.77262 2.98584 9.94606 2.60456 10.6882 1.72863Z" fill="#017DE9"/>
</svg>
